<svg width="528" height="186" viewBox="0 0 528 186" fill="none" xmlns="http://www.w3.org/2000/svg">
<g clip-path="url(#clip0_1_2)">
<rect x="3" y="3" width="522" height="180" rx="27" fill="#D9D9D9" stroke="black" stroke-width="6"/>
<path fill-rule="evenodd" clip-rule="evenodd" d="M0 132H15.9898C29.7692 157.036 56.4035 174 87 174C117.597 174 144.231 157.036 158.01 132H168H528V156C528 172.569 514.569 186 498 186H168H30C13.4315 186 0 172.569 0 156V132Z" fill="black"/>
<path d="M215.276 173V145H227.636C229.556 145 231.183 145.28 232.516 145.84C233.85 146.373 234.85 147.16 235.516 148.2C236.21 149.213 236.556 150.44 236.556 151.88C236.556 153.48 236.156 154.827 235.356 155.92C234.583 157.013 233.45 157.747 231.956 158.12L231.876 157.36C233.13 157.627 234.21 158.093 235.116 158.76C236.05 159.427 236.77 160.253 237.276 161.24C237.783 162.2 238.036 163.293 238.036 164.52C238.036 165.933 237.796 167.173 237.316 168.24C236.836 169.28 236.143 170.16 235.236 170.88C234.33 171.6 233.263 172.133 232.036 172.48C230.836 172.827 229.503 173 228.036 173H215.276ZM221.676 167.32H227.796C228.543 167.32 229.17 167.2 229.676 166.96C230.21 166.72 230.623 166.373 230.916 165.92C231.21 165.44 231.356 164.867 231.356 164.2C231.356 163.587 231.196 163.067 230.876 162.64C230.583 162.213 230.156 161.893 229.596 161.68C229.036 161.44 228.37 161.32 227.596 161.32H221.676V167.32ZM221.676 156.24H226.676C227.37 156.24 227.956 156.133 228.436 155.92C228.943 155.68 229.316 155.36 229.556 154.96C229.823 154.533 229.956 154.027 229.956 153.44C229.956 152.587 229.663 151.92 229.076 151.44C228.49 150.933 227.61 150.68 226.436 150.68H221.676V156.24ZM252.426 173V159.04L252.706 161L241.386 145H249.106L257.746 157.4L254.226 157.28L262.026 145H269.506L258.666 161.44L259.266 158.72V173H252.426Z" fill="white"/>
<path d="M320.6 173V145H326.68L341.36 165L340.04 164.8C339.907 163.92 339.8 163.08 339.72 162.28C339.64 161.48 339.56 160.693 339.48 159.92C339.427 159.147 339.374 158.36 339.32 157.56C339.294 156.76 339.267 155.893 339.24 154.96C339.24 154.027 339.24 153.013 339.24 151.92V145H345.84V173H339.68L324.36 152.36L326.4 152.64C326.534 153.92 326.64 155.013 326.72 155.92C326.827 156.8 326.907 157.587 326.96 158.28C327.04 158.973 327.094 159.6 327.12 160.16C327.147 160.72 327.16 161.28 327.16 161.84C327.187 162.373 327.2 162.973 327.2 163.64V173H320.6ZM368.386 173.4C366.279 173.4 364.333 173.053 362.546 172.36C360.786 171.64 359.253 170.64 357.946 169.36C356.639 168.053 355.626 166.52 354.906 164.76C354.213 162.973 353.866 161.013 353.866 158.88C353.866 156.8 354.239 154.88 354.986 153.12C355.733 151.36 356.759 149.84 358.066 148.56C359.399 147.253 360.959 146.24 362.746 145.52C364.559 144.8 366.533 144.44 368.666 144.44C369.999 144.44 371.306 144.613 372.586 144.96C373.866 145.307 375.053 145.827 376.146 146.52C377.266 147.187 378.226 147.987 379.026 148.92L374.866 153.68C374.306 153.093 373.706 152.587 373.066 152.16C372.453 151.707 371.773 151.36 371.026 151.12C370.279 150.88 369.479 150.76 368.626 150.76C367.559 150.76 366.546 150.96 365.586 151.36C364.653 151.733 363.826 152.28 363.106 153C362.413 153.693 361.866 154.547 361.466 155.56C361.066 156.573 360.866 157.707 360.866 158.96C360.866 160.187 361.066 161.307 361.466 162.32C361.866 163.307 362.426 164.16 363.146 164.88C363.866 165.6 364.733 166.147 365.746 166.52C366.786 166.893 367.933 167.08 369.186 167.08C370.039 167.08 370.853 166.96 371.626 166.72C372.399 166.48 373.106 166.16 373.746 165.76C374.413 165.333 374.999 164.853 375.506 164.32L378.786 169.52C378.119 170.267 377.226 170.933 376.106 171.52C375.013 172.107 373.786 172.573 372.426 172.92C371.093 173.24 369.746 173.4 368.386 173.4Z" fill="white"/>
<path d="M441.338 173.4C439.498 173.4 437.831 173.187 436.338 172.76C434.871 172.307 433.564 171.667 432.418 170.84C431.271 169.987 430.244 168.987 429.338 167.84L433.458 163.16C434.791 164.947 436.124 166.147 437.458 166.76C438.818 167.373 440.218 167.68 441.658 167.68C442.378 167.68 443.031 167.587 443.618 167.4C444.204 167.213 444.658 166.947 444.978 166.6C445.298 166.227 445.458 165.773 445.458 165.24C445.458 164.84 445.351 164.48 445.138 164.16C444.951 163.84 444.684 163.56 444.338 163.32C443.991 163.08 443.578 162.867 443.098 162.68C442.618 162.467 442.111 162.293 441.578 162.16C441.044 162 440.498 161.867 439.938 161.76C438.391 161.413 437.044 160.987 435.898 160.48C434.751 159.973 433.791 159.36 433.018 158.64C432.271 157.893 431.711 157.053 431.338 156.12C430.964 155.16 430.778 154.093 430.778 152.92C430.778 151.667 431.058 150.52 431.618 149.48C432.204 148.413 432.978 147.507 433.938 146.76C434.924 145.987 436.058 145.4 437.338 145C438.618 144.573 439.951 144.36 441.338 144.36C443.178 144.36 444.751 144.56 446.058 144.96C447.391 145.333 448.524 145.88 449.458 146.6C450.418 147.32 451.231 148.187 451.898 149.2L447.698 153.24C447.138 152.547 446.524 151.973 445.858 151.52C445.218 151.067 444.524 150.72 443.778 150.48C443.058 150.24 442.311 150.12 441.538 150.12C440.738 150.12 440.044 150.227 439.458 150.44C438.898 150.627 438.458 150.907 438.138 151.28C437.818 151.627 437.658 152.053 437.658 152.56C437.658 153.013 437.791 153.4 438.058 153.72C438.324 154.04 438.684 154.333 439.138 154.6C439.591 154.84 440.111 155.053 440.698 155.24C441.284 155.4 441.898 155.533 442.538 155.64C444.004 155.933 445.324 156.32 446.498 156.8C447.698 157.28 448.724 157.867 449.578 158.56C450.458 159.253 451.124 160.08 451.578 161.04C452.058 161.973 452.298 163.067 452.298 164.32C452.298 166.267 451.818 167.92 450.858 169.28C449.924 170.613 448.631 171.64 446.978 172.36C445.351 173.053 443.471 173.4 441.338 173.4ZM456.649 173L467.729 145H473.489L484.489 173H477.609L472.329 158.8C472.116 158.24 471.902 157.64 471.689 157C471.476 156.36 471.262 155.707 471.049 155.04C470.836 154.347 470.622 153.68 470.409 153.04C470.222 152.373 470.062 151.76 469.929 151.2L471.129 151.16C470.969 151.827 470.782 152.48 470.569 153.12C470.382 153.76 470.182 154.4 469.969 155.04C469.782 155.653 469.569 156.28 469.329 156.92C469.089 157.533 468.862 158.173 468.649 158.84L463.369 173H456.649ZM461.929 167.64L464.049 162.52H476.929L479.009 167.64H461.929Z" fill="white"/>
<g clip-path="url(#clip1_1_2)">
<ellipse cx="86.5" cy="93" rx="66.5" ry="63" fill="white"/>
<path d="M86.8662 21C107.007 21 124.157 28.032 138.298 42.0864C144.959 48.6974 150.206 56.5933 153.721 65.2944C157.239 73.992 159.001 83.2272 159.001 93C159.001 102.859 157.258 112.094 153.793 120.706C150.33 129.305 145.096 137.08 138.433 143.525C131.579 150.352 123.453 155.77 114.514 159.47C105.757 163.125 96.3606 165.005 86.871 165C77.3574 165 68.247 163.176 59.5494 159.528C50.7878 155.846 42.8367 150.475 36.1494 143.722C29.2518 136.824 24.0006 129.043 20.4006 120.384C16.7965 111.706 14.9606 102.396 15.0006 93C15.0006 83.4864 16.8246 74.3376 20.463 65.5488C24.1418 56.7111 29.539 48.692 36.3414 41.9568C50.055 27.9888 66.8982 21 86.8662 21ZM87.1302 33.9888C70.671 33.9888 56.8278 39.7296 45.6006 51.216C40.061 56.7793 35.6302 63.3456 32.5446 70.5648C29.5145 77.6569 27.9629 85.2925 27.9846 93.0048C27.9846 100.718 29.5014 108.154 32.5446 115.306C35.6015 122.485 40.0373 128.995 45.6006 134.467C51.0819 139.965 57.5889 144.334 64.7526 147.326C71.871 150.283 79.3302 151.762 87.1302 151.762C94.8438 151.762 102.317 150.264 109.57 147.264C116.871 144.222 123.524 139.815 129.173 134.28C140.401 123.307 146.012 109.55 146.012 93C146.012 85.032 144.553 77.4912 141.644 70.3776C138.719 63.2457 134.392 56.7738 128.919 51.3456C117.341 39.7776 103.412 33.9888 87.1302 33.9888ZM86.2278 81.0432L76.5798 86.0592C75.5478 83.9232 74.2902 82.4208 72.7878 81.5616C71.2902 80.7072 69.8982 80.2752 68.6118 80.2752C62.1798 80.2752 58.9638 84.5184 58.9638 93.0048C58.9638 96.8592 59.7798 99.9456 61.407 102.259C63.039 104.573 65.439 105.734 68.607 105.734C72.8118 105.734 75.7686 103.67 77.487 99.5616L86.3526 104.059C84.5477 107.491 81.8345 110.36 78.5094 112.354C75.1686 114.37 71.4822 115.378 67.455 115.378C61.023 115.378 55.839 113.41 51.8934 109.459C47.9526 105.523 45.9798 100.032 45.9798 93.0048C45.9798 86.1504 47.9766 80.7072 51.9606 76.68C55.9446 72.648 60.9798 70.632 67.0662 70.632C75.9846 70.632 82.3686 74.1024 86.2278 81.048V81.0432ZM127.757 81.0432L118.239 86.0592C117.212 83.9232 115.945 82.4208 114.447 81.5616C112.945 80.7072 111.505 80.2752 110.141 80.2752C103.709 80.2752 100.493 84.5184 100.493 93.0048C100.493 96.8592 101.309 99.9456 102.941 102.259C104.564 104.573 106.964 105.734 110.141 105.734C114.337 105.734 117.293 103.67 119.007 99.5616L128.007 104.059C126.129 107.479 123.38 110.34 120.039 112.354C116.698 114.37 113.055 115.378 109.109 115.378C102.596 115.378 97.3926 113.41 93.495 109.459C89.5878 105.523 87.639 100.032 87.639 93.0048C87.639 86.1504 89.631 80.7072 93.6198 76.68C97.6038 72.648 102.639 70.632 108.725 70.632C117.639 70.632 123.989 74.1024 127.757 81.048V81.0432Z" fill="black"/>
</g>
<g clip-path="url(#clip2_1_2)">
<ellipse cx="239.5" cy="66" rx="43.5" ry="41" fill="white"/>
<path d="M239.749 19C252.903 19 264.002 23.5308 273.032 32.5987C282.121 41.7167 286.667 52.8494 286.667 66C286.667 79.207 282.202 90.1987 273.282 98.9815C263.806 108.331 252.628 113 239.749 113C227.092 113 216.111 108.381 206.8 99.1507C197.602 89.9167 193 78.8686 193 66C193 53.1314 197.602 41.9987 206.8 32.5987C215.833 23.5308 226.814 19 239.749 19ZM239.918 27.4788C229.271 27.4788 220.263 31.2263 212.904 38.7243C205.264 46.5577 201.446 55.6506 201.446 66.0031C201.446 76.4089 205.236 85.4173 212.817 93.025C220.401 100.636 229.433 104.437 239.915 104.437C250.34 104.437 259.428 100.608 267.178 92.9373C274.54 85.834 278.218 76.8539 278.218 65.9969C278.218 55.3122 274.481 46.2224 267.012 38.7212C259.544 31.2263 250.511 27.4788 239.918 27.4788ZM252.463 54.3315V73.5513H247.108V96.3808H232.559V73.5513H227.207V54.3315C227.2 53.9338 227.273 53.5387 227.424 53.1707C227.574 52.8026 227.798 52.4693 228.081 52.1914C228.359 51.9063 228.691 51.6812 229.058 51.5298C229.426 51.3784 229.82 51.3039 230.217 51.3109H249.453C250.233 51.3109 250.933 51.6023 251.545 52.1883C251.839 52.4606 252.073 52.7923 252.232 53.1616C252.39 53.5309 252.469 53.9295 252.463 54.3315ZM233.308 42.2493C233.308 37.8313 235.481 35.6192 239.833 35.6192C244.186 35.6192 246.359 37.8282 246.359 42.2493C246.359 46.6141 244.183 48.798 239.833 48.798C235.484 48.798 233.308 46.6141 233.308 42.2493Z" fill="black"/>
</g>
<g clip-path="url(#clip3_1_2)">
<ellipse cx="348.5" cy="66" rx="45.5" ry="43" fill="white"/>
<path d="M348.416 19C361.573 19 372.669 23.5308 381.699 32.5955C390.787 41.6603 395.333 52.7961 395.333 66C395.333 79.207 390.872 90.1987 381.948 98.9846C372.472 108.331 361.292 113 348.416 113C335.702 113 324.718 108.356 315.467 99.0692C306.269 89.8353 301.667 78.8153 301.667 66C301.667 53.1314 306.269 41.9987 315.467 32.5987C324.499 23.5308 335.48 19 348.416 19ZM312.204 53.3288C310.812 57.1891 310.112 61.4128 310.112 66.0031C310.112 76.4089 313.903 85.4173 321.483 93.025C329.124 100.583 338.156 104.358 348.581 104.358C359.119 104.358 368.204 100.526 375.848 92.8589C378.58 90.2301 380.721 87.4884 382.282 84.6308L364.639 76.7411C364.075 79.6257 362.484 82.206 360.165 84.001C357.792 85.8747 354.991 86.9557 351.756 87.2315V94.4507H346.324V87.2315C341.138 87.1782 336.395 85.3045 332.105 81.6103L338.546 75.0647C341.609 77.9161 345.097 79.3449 349 79.3449C350.614 79.3449 351.997 78.9814 353.14 78.2513C354.282 77.5275 354.857 76.3243 354.857 74.6449C354.857 73.4667 354.435 72.5142 353.602 71.7904L349.084 69.8571L343.567 67.3379L336.124 64.0667L312.204 53.3288ZM348.584 27.3911C337.938 27.3911 328.93 31.1699 321.571 38.7212C319.729 40.5699 318.002 42.6692 316.388 45.0192L334.285 53.075C335.038 50.6486 336.604 48.5584 338.718 47.1593C340.888 45.6772 343.426 44.85 346.327 44.6839V37.4647H351.763V44.6839C356.059 44.9064 359.959 46.3603 363.471 49.0455L357.367 55.3467C354.744 53.498 352.069 52.5768 349.337 52.5768C347.888 52.5768 346.589 52.8588 345.45 53.4134C344.307 53.9743 343.732 54.9268 343.732 56.2679C343.732 56.6595 343.873 57.0512 344.151 57.4429L350.089 60.1313L354.189 61.9799L361.713 65.3326L385.714 76.0768C386.494 72.7743 386.885 69.4185 386.885 66.0063C386.885 55.2057 383.15 46.1127 375.682 38.7243C368.267 31.173 359.228 27.3942 348.581 27.3942L348.584 27.3911Z" fill="black"/>
</g>
<g clip-path="url(#clip4_1_2)">
<ellipse cx="456.5" cy="66" rx="45.5" ry="43" fill="white"/>
<path d="M457.082 19C470.183 19 481.28 23.559 490.365 32.6801C499.454 41.748 504 52.8525 504 66C504 79.1506 499.535 90.1705 490.615 99.0661C481.195 108.356 470.015 113 457.082 113C444.425 113 433.444 108.385 424.134 99.1507C414.935 89.9199 410.333 78.8717 410.333 66C410.333 53.1909 414.935 42.0833 424.134 32.6833C433.219 23.559 444.203 19 457.082 19ZM457.251 27.4788C446.604 27.4788 437.597 31.2545 430.238 38.8089C422.597 46.589 418.779 55.6506 418.779 66C418.779 76.4653 422.569 85.4705 430.15 93.025C437.734 100.639 446.767 104.44 457.248 104.44C467.673 104.44 476.762 100.608 484.511 92.9404C491.873 85.7807 495.551 76.8006 495.551 66C495.551 55.2589 491.814 46.1942 484.346 38.8089C476.93 31.2513 467.898 27.4788 457.251 27.4788ZM436.341 59.3699C437.234 53.6045 439.545 49.1427 443.282 45.9811C447.016 42.8227 451.559 41.2404 456.914 41.2404C464.27 41.2404 470.127 43.6217 474.476 48.375C478.826 53.1283 481.002 59.2289 481.002 66.6705C481.002 73.8897 478.741 79.8901 474.227 84.6715C469.709 89.453 463.858 91.8469 456.661 91.8469C451.366 91.8469 446.795 90.2551 442.948 87.0623C439.098 83.8725 436.788 79.3417 436.004 73.4667H447.8C448.081 79.1757 451.506 82.0301 458.088 82.0301C461.375 82.0301 464.026 80.6013 466.031 77.75C468.041 74.8987 469.044 71.0885 469.044 66.3353C469.044 61.3533 468.126 57.5651 466.287 54.9613C464.445 52.3606 461.8 51.0603 458.341 51.0603C452.093 51.0603 448.581 53.8301 447.803 59.3667H451.231L441.949 68.6821L432.667 59.3667L436.341 59.3699Z" fill="black"/>
</g>
</g>
<defs>
<clipPath id="clip0_1_2">
<rect width="528" height="186" fill="white"/>
</clipPath>
<clipPath id="clip1_1_2">
<rect width="144" height="144" fill="white" transform="translate(15 21)"/>
</clipPath>
<clipPath id="clip2_1_2">
<rect width="93.6667" height="94" fill="white" transform="translate(193 19)"/>
</clipPath>
<clipPath id="clip3_1_2">
<rect width="93.6667" height="94" fill="white" transform="translate(301.667 19)"/>
</clipPath>
<clipPath id="clip4_1_2">
<rect width="93.6667" height="94" fill="white" transform="translate(410.333 19)"/>
</clipPath>
</defs>
</svg>
